<svg width="318" height="45" viewBox="0 0 318 45" fill="none" xmlns="http://www.w3.org/2000/svg">
<path d="M100.303 33.287C98.7168 33.287 97.2048 33.1003 95.7675 32.727C94.3488 32.335 93.1541 31.8123 92.1835 31.159L93.6395 27.155C94.2555 27.547 94.9275 27.883 95.6555 28.163C96.3835 28.443 97.1395 28.667 97.9235 28.835C98.7261 28.9843 99.5381 29.059 100.359 29.059C101.591 29.059 102.441 28.9003 102.907 28.583C103.393 28.2657 103.635 27.855 103.635 27.351C103.635 26.903 103.477 26.5577 103.159 26.315C102.842 26.0537 102.245 25.8297 101.367 25.643L97.9515 24.943C96.1408 24.5697 94.7875 23.9257 93.8915 23.011C92.9955 22.0777 92.5475 20.8643 92.5475 19.371C92.5475 18.0643 92.8928 16.935 93.5835 15.983C94.2928 15.0123 95.2821 14.2657 96.5515 13.743C97.8208 13.2017 99.3048 12.931 101.003 12.931C102.403 12.931 103.719 13.127 104.951 13.519C106.183 13.8923 107.191 14.415 107.975 15.087L106.519 18.839C105.773 18.2977 104.933 17.887 103.999 17.607C103.066 17.3083 102.03 17.159 100.891 17.159C99.8088 17.159 98.9875 17.327 98.4275 17.663C97.8861 17.9803 97.6155 18.4377 97.6155 19.035C97.6155 19.4457 97.7741 19.8003 98.0915 20.099C98.4275 20.379 99.0341 20.6123 99.9115 20.799L103.271 21.471C105.082 21.8257 106.435 22.4603 107.331 23.375C108.246 24.2897 108.703 25.4843 108.703 26.959C108.703 28.2283 108.349 29.339 107.639 30.291C106.949 31.243 105.978 31.9803 104.727 32.503C103.477 33.0257 102.002 33.287 100.303 33.287ZM111.389 32.979V22.619C111.389 21.9843 111.37 21.3403 111.333 20.687C111.295 20.0337 111.239 19.3897 111.165 18.755H115.981L116.261 21.219H115.953C116.363 20.3603 116.97 19.6883 117.773 19.203C118.575 18.699 119.518 18.447 120.601 18.447C121.646 18.447 122.533 18.699 123.261 19.203C124.007 19.6883 124.549 20.463 124.885 21.527H124.409C124.875 20.5563 125.547 19.8003 126.425 19.259C127.321 18.7177 128.319 18.447 129.421 18.447C131.045 18.447 132.258 18.9417 133.061 19.931C133.863 20.9017 134.265 22.423 134.265 24.495V32.979H129.253V24.663C129.253 23.7857 129.122 23.1697 128.861 22.815C128.599 22.4417 128.179 22.255 127.601 22.255C126.873 22.255 126.303 22.5163 125.893 23.039C125.501 23.5617 125.305 24.2803 125.305 25.195V32.979H120.321V24.663C120.321 23.7857 120.181 23.1697 119.901 22.815C119.639 22.4417 119.229 22.255 118.669 22.255C117.941 22.255 117.371 22.5163 116.961 23.039C116.569 23.5617 116.373 24.2803 116.373 25.195V32.979H111.389ZM142.856 33.287C141.624 33.287 140.541 32.9977 139.608 32.419C138.674 31.8217 137.937 30.963 137.396 29.843C136.873 28.723 136.612 27.3977 136.612 25.867C136.612 24.3177 136.873 22.9923 137.396 21.891C137.937 20.771 138.674 19.9217 139.608 19.343C140.541 18.7457 141.624 18.447 142.856 18.447C143.957 18.447 144.946 18.7083 145.824 19.231C146.72 19.7537 147.308 20.435 147.588 21.275H147.308L147.616 18.755H152.404C152.348 19.3897 152.292 20.0337 152.236 20.687C152.198 21.3403 152.18 21.9843 152.18 22.619V32.979H147.252L147.196 30.571H147.532C147.252 31.3923 146.664 32.055 145.768 32.559C144.89 33.0443 143.92 33.287 142.856 33.287ZM144.452 29.591C145.292 29.591 145.973 29.3017 146.496 28.723C147.018 28.1257 147.28 27.1737 147.28 25.867C147.28 24.5603 147.018 23.6177 146.496 23.039C145.973 22.4417 145.292 22.143 144.452 22.143C143.612 22.143 142.93 22.4417 142.408 23.039C141.885 23.6177 141.624 24.5603 141.624 25.867C141.624 27.1737 141.876 28.1257 142.38 28.723C142.902 29.3017 143.593 29.591 144.452 29.591ZM155.275 32.979V22.647C155.275 21.9937 155.257 21.3403 155.219 20.687C155.182 20.0337 155.126 19.3897 155.051 18.755H159.867L160.399 23.123H159.643C159.83 22.059 160.129 21.1817 160.539 20.491C160.95 19.8003 161.463 19.287 162.079 18.951C162.695 18.615 163.423 18.447 164.263 18.447C164.655 18.447 164.945 18.4657 165.131 18.503C165.337 18.5217 165.551 18.5777 165.775 18.671V23.039C165.309 22.8337 164.935 22.703 164.655 22.647C164.375 22.591 164.011 22.563 163.563 22.563C162.798 22.563 162.173 22.703 161.687 22.983C161.202 23.2443 160.847 23.655 160.623 24.215C160.418 24.775 160.315 25.4937 160.315 26.371V32.979H155.275ZM175.38 33.287C173.364 33.287 171.842 32.811 170.816 31.859C169.808 30.8883 169.304 29.423 169.304 27.463V22.423H166.644V18.755H169.304V15.395L174.288 14.219V18.755H177.76V22.423H174.288V27.267C174.288 28.0883 174.474 28.639 174.848 28.919C175.221 29.1803 175.669 29.311 176.192 29.311C176.509 29.311 176.78 29.2923 177.004 29.255C177.246 29.199 177.498 29.1243 177.76 29.031V32.867C177.349 33.035 176.938 33.147 176.528 33.203C176.136 33.259 175.753 33.287 175.38 33.287ZM179.973 32.979V13.239H185.153V28.695H193.609V32.979H179.973ZM201.481 33.287C200.249 33.287 199.166 32.9977 198.233 32.419C197.299 31.8217 196.562 30.963 196.021 29.843C195.498 28.723 195.237 27.3977 195.237 25.867C195.237 24.3177 195.498 22.9923 196.021 21.891C196.562 20.771 197.299 19.9217 198.233 19.343C199.166 18.7457 200.249 18.447 201.481 18.447C202.582 18.447 203.571 18.7083 204.449 19.231C205.345 19.7537 205.933 20.435 206.213 21.275H205.933L206.241 18.755H211.029C210.973 19.3897 210.917 20.0337 210.861 20.687C210.823 21.3403 210.805 21.9843 210.805 22.619V32.979H205.877L205.821 30.571H206.157C205.877 31.3923 205.289 32.055 204.393 32.559C203.515 33.0443 202.545 33.287 201.481 33.287ZM203.077 29.591C203.917 29.591 204.598 29.3017 205.121 28.723C205.643 28.1257 205.905 27.1737 205.905 25.867C205.905 24.5603 205.643 23.6177 205.121 23.039C204.598 22.4417 203.917 22.143 203.077 22.143C202.237 22.143 201.555 22.4417 201.033 23.039C200.51 23.6177 200.249 24.5603 200.249 25.867C200.249 27.1737 200.501 28.1257 201.005 28.723C201.527 29.3017 202.218 29.591 203.077 29.591ZM217.88 32.979L211.972 18.755H217.04L220.568 28.107H219.868L223.34 18.755H226.504L230.004 28.107H229.416L232.888 18.755H237.648L231.796 32.979H227.624L223.788 23.319H225.692L222.052 32.979H217.88ZM239.255 32.979V13.239H248.831C251.033 13.239 252.723 13.6963 253.899 14.611C255.093 15.5257 255.691 16.767 255.691 18.335C255.691 19.4923 255.345 20.4817 254.655 21.303C253.983 22.1243 253.059 22.6843 251.883 22.983V22.535C253.283 22.7777 254.356 23.319 255.103 24.159C255.868 24.9803 256.251 26.0537 256.251 27.379C256.251 29.115 255.616 30.487 254.347 31.495C253.077 32.4843 251.341 32.979 249.139 32.979H239.255ZM244.211 29.199H248.467C249.437 29.199 250.156 29.0217 250.623 28.667C251.108 28.3123 251.351 27.7617 251.351 27.015C251.351 26.2497 251.108 25.699 250.623 25.363C250.156 25.027 249.437 24.859 248.467 24.859H244.211V29.199ZM244.211 21.079H247.879C248.868 21.079 249.587 20.911 250.035 20.575C250.501 20.239 250.735 19.7257 250.735 19.035C250.735 18.3443 250.501 17.8403 250.035 17.523C249.587 17.187 248.868 17.019 247.879 17.019H244.211V21.079ZM265.719 33.287C264.133 33.287 262.761 32.9883 261.603 32.391C260.446 31.7937 259.55 30.9443 258.915 29.843C258.281 28.723 257.963 27.3977 257.963 25.867C257.963 24.3177 258.281 22.9923 258.915 21.891C259.55 20.7897 260.446 19.9403 261.603 19.343C262.761 18.7457 264.133 18.447 265.719 18.447C267.287 18.447 268.65 18.7457 269.807 19.343C270.965 19.9403 271.861 20.799 272.495 21.919C273.13 23.0203 273.447 24.3363 273.447 25.867C273.447 27.379 273.13 28.695 272.495 29.815C271.861 30.935 270.965 31.7937 269.807 32.391C268.65 32.9883 267.287 33.287 265.719 33.287ZM265.719 29.591C266.541 29.591 267.194 29.3017 267.679 28.723C268.165 28.1257 268.407 27.1737 268.407 25.867C268.407 24.5603 268.165 23.6177 267.679 23.039C267.194 22.4417 266.541 22.143 265.719 22.143C264.879 22.143 264.217 22.4417 263.731 23.039C263.246 23.6177 263.003 24.5603 263.003 25.867C263.003 27.1737 263.246 28.1257 263.731 28.723C264.217 29.3017 264.879 29.591 265.719 29.591ZM272.986 32.979L279.874 24.579V26.735L273.378 18.755H279.202L282.73 23.375H280.938L284.494 18.755H290.29L283.794 26.763V24.523L290.71 32.979H284.83L280.938 27.967H282.73L278.81 32.979H272.986Z" fill="#1F5039"/>
<path d="M67.5575 25.2529L67.5653 25.2466C67.5962 25.2146 67.6194 25.1826 67.6426 25.1506C67.6426 25.1442 67.6503 25.1442 67.6503 25.1378C67.6735 25.1059 67.6967 25.0739 67.7199 25.0355C67.8127 24.8948 67.8745 24.7414 67.9132 24.5751V24.5687C67.9209 24.5303 67.9286 24.492 67.9286 24.4536V24.4472C67.9286 24.4088 67.9364 24.3769 67.9364 24.3385V24.3193V24.3065C67.9364 24.2745 67.9364 24.2426 67.9286 24.2106V24.1978C67.9132 24.0188 67.8591 23.8461 67.774 23.6862L56.3701 1.02316C56.0763 0.441239 55.3882 0.0639477 54.6228 0.0639477H54.6151C54.5532 0.0639477 54.4914 0.0703419 54.4295 0.0703419C54.2517 0.0255785 54.0584 0 53.8651 0H14.6279C14.3883 0 14.1563 0.038368 13.9398 0.102316C13.8007 0.0767367 13.6538 0.0575525 13.5069 0.0575525H13.4991C12.7337 0.0575525 12.0456 0.434844 11.7441 1.01037L0.154629 23.699C0.10824 23.7822 0.077315 23.8653 0.0541206 23.9548V23.9612C0.0309262 24.0379 0.0154628 24.1147 0.00773135 24.1914V24.2106C0.00773135 24.2426 0 24.2745 0 24.3129V24.3385C0 24.3705 -1.18088e-07 24.4088 0.00773135 24.4408V24.4536C0.0154628 24.492 0.0154632 24.5303 0.0231946 24.5687C0.0541205 24.735 0.123704 24.8884 0.216481 25.0291C0.239676 25.0611 0.26287 25.0995 0.286064 25.1314C0.286064 25.1378 0.293796 25.1378 0.293796 25.1442C0.31699 25.1762 0.347916 25.2082 0.37111 25.2402C0.37111 25.2402 0.37111 25.2466 0.378842 25.2466C0.402036 25.2785 0.432962 25.3041 0.463888 25.3297L0.479351 25.3425C0.510277 25.3681 0.541203 25.4 0.572128 25.4256L0.587591 25.4384C0.618517 25.464 0.657174 25.4896 0.695832 25.5151L12.208 33.1377C12.5559 33.3679 12.9811 33.483 13.3986 33.483C13.8239 33.483 14.2414 33.3679 14.5893 33.1377L26.1014 25.5151C26.1401 25.4896 26.171 25.464 26.2097 25.4384L26.2251 25.4256L26.3179 25.3489C26.3256 25.3425 26.3256 25.3361 26.3334 25.3361C26.3643 25.3105 26.3875 25.2849 26.4107 25.2593C26.4107 25.2529 26.4184 25.253 26.4184 25.2466C26.4416 25.2146 26.4725 25.189 26.4957 25.157C26.5035 25.1506 26.5035 25.1442 26.5112 25.1378L26.5808 25.0419C26.5808 25.0419 26.5808 25.0355 26.5885 25.0355C26.6349 24.9652 26.6735 24.8948 26.7045 24.8181V24.8117C26.7354 24.735 26.7586 24.6646 26.7741 24.5815V24.5687C26.7818 24.5303 26.7895 24.492 26.7895 24.4536V24.4408C26.7895 24.4088 26.7973 24.3769 26.7973 24.3449V24.3193V24.3065C26.7973 24.2745 26.7973 24.2426 26.7895 24.2106V24.1914C26.7895 24.153 26.7818 24.1211 26.7741 24.0827C26.7663 24.0443 26.7586 23.9996 26.7431 23.9612V23.9548C26.7199 23.8653 26.6813 23.7694 26.6349 23.6862L16.3057 3.10786H32.3407V41.8921H19.1508C18.0994 41.8921 17.2489 42.5892 17.2489 43.4461C17.2489 44.303 18.0994 45 19.1508 45H49.3267C50.3782 45 51.2287 44.303 51.2287 43.4461C51.2287 42.5892 50.3782 41.8921 49.3267 41.8921H36.1369V3.10786H51.7853L41.2628 23.699C41.2164 23.7822 41.1855 23.8653 41.1623 23.9548V23.9612C41.1391 24.0379 41.1237 24.1147 41.1159 24.1914V24.2106C41.1159 24.2426 41.1082 24.2745 41.1082 24.3129V24.3385C41.1082 24.3769 41.1082 24.4088 41.1159 24.4408V24.4536C41.1237 24.492 41.1237 24.5303 41.1314 24.5687C41.1623 24.735 41.2319 24.8884 41.3247 25.0291C41.3479 25.0611 41.3711 25.0995 41.3943 25.1314C41.3943 25.1378 41.402 25.1378 41.402 25.1442C41.4252 25.1762 41.4561 25.2082 41.4793 25.2402V25.2466C41.5102 25.2785 41.5334 25.3041 41.5643 25.3361L41.5798 25.3489C41.6107 25.3745 41.6417 25.4064 41.6803 25.432L41.6958 25.4448C41.7344 25.4704 41.7654 25.496 41.804 25.5215L53.3162 33.1441C53.6641 33.3743 54.0893 33.4894 54.5068 33.4894C54.932 33.4894 55.3495 33.3743 55.6975 33.1441L67.2096 25.5215C67.2483 25.496 67.2869 25.4704 67.3178 25.4448L67.3333 25.432C67.3642 25.4064 67.3952 25.3808 67.4261 25.3489L67.4416 25.3361C67.5034 25.3105 67.5266 25.2849 67.5575 25.2529ZM63.2047 22.759H45.863L54.5919 5.67216L63.2047 22.759ZM13.4837 5.67216L22.0965 22.759H4.75485L13.4837 5.67216ZM13.4141 29.9339L7.26758 25.8668H19.5606L13.4141 29.9339ZM54.53 29.9339L48.3835 25.8668H60.6765L54.53 29.9339Z" fill="#1F5039"/>
</svg>
