<svg width="34" height="34" viewBox="0 0 34 34" fill="none" xmlns="http://www.w3.org/2000/svg">
<circle cx="16.8137" cy="16.8137" r="16.8137" fill="#F5F7FA"/>
<path d="M26 8H8V26H26V8Z" fill="white" fill-opacity="0.01"/>
<path fill-rule="evenodd" clip-rule="evenodd" d="M17 24.5C19.071 24.5 20.946 23.6605 22.3033 22.3033C23.6605 20.946 24.5 19.071 24.5 17C24.5 14.9289 23.6605 13.0539 22.3033 11.6967C20.946 10.3395 19.071 9.5 17 9.5C14.9289 9.5 13.0539 10.3395 11.6967 11.6967C10.3395 13.0539 9.5 14.9289 9.5 17C9.5 19.071 10.3395 20.946 11.6967 22.3033C13.0539 23.6605 14.9289 24.5 17 24.5Z" stroke="#2E6F50" stroke-width="1.1" stroke-linejoin="round"/>
<path d="M17 18.7344V17.2344C18.2426 17.2344 19.25 16.227 19.25 14.9844C19.25 13.7417 18.2426 12.7344 17 12.7344C15.7574 12.7344 14.75 13.7417 14.75 14.9844" stroke="#2E6F50" stroke-width="1.1" stroke-linecap="round" stroke-linejoin="round"/>
<path fill-rule="evenodd" clip-rule="evenodd" d="M17 22.1094C17.5178 22.1094 17.9375 21.6896 17.9375 21.1719C17.9375 20.6541 17.5178 20.2344 17 20.2344C16.4822 20.2344 16.0625 20.6541 16.0625 21.1719C16.0625 21.6896 16.4822 22.1094 17 22.1094Z" fill="#2E6F50"/>
</svg>
