<svg width="35" height="34" viewBox="0 0 35 34" fill="none" xmlns="http://www.w3.org/2000/svg">
<circle cx="17.6154" cy="17.1764" r="16.8137" fill="#F5F7FA"/>
<g clip-path="url(#clip0_444_551)">
<path d="M17.2414 25.2468C15.7934 25.2468 14.6143 24.0684 14.6143 22.6197C14.6143 22.3296 14.8496 22.0942 15.1397 22.0942C15.4297 22.0942 15.6651 22.3296 15.6651 22.6197C15.6651 23.4891 16.3727 24.1959 17.2414 24.1959C18.1101 24.1959 18.8177 23.4891 18.8177 22.6197C18.8177 22.3296 19.0531 22.0942 19.3431 22.0942C19.6331 22.0942 19.8685 22.3296 19.8685 22.6197C19.8685 24.0684 18.6895 25.2468 17.2414 25.2468Z" fill="#FE5C73"/>
<path d="M23.0207 23.1452H11.4613C10.7853 23.1452 10.2354 22.5952 10.2354 21.9192C10.2354 21.5604 10.3916 21.2207 10.6641 20.9874C10.6816 20.972 10.7005 20.958 10.7201 20.9453C11.7485 20.0479 12.3371 18.7568 12.3371 17.3934V15.4389C12.3371 12.7348 14.5375 10.5349 17.241 10.5349C17.3531 10.5349 17.4743 10.537 17.5864 10.5559C17.8729 10.6035 18.0663 10.8747 18.0186 11.1605C17.971 11.4463 17.695 11.6398 17.414 11.5921C17.358 11.5829 17.2964 11.5858 17.241 11.5858C15.117 11.5858 13.3879 13.3141 13.3879 15.4389V17.3934C13.3879 19.0861 12.646 20.6876 11.3542 21.7867C11.3437 21.7952 11.3346 21.8029 11.3233 21.8105C11.3044 21.8344 11.2862 21.8708 11.2862 21.9192C11.2862 22.0144 11.3661 22.0943 11.4613 22.0943H23.0207C23.116 22.0943 23.1959 22.0144 23.1959 21.9192C23.1959 21.8701 23.1777 21.8344 23.1581 21.8105C23.1476 21.8029 23.1384 21.7952 23.1279 21.7867C21.8354 20.6868 21.0942 19.0861 21.0942 17.3934V16.6299C21.0942 16.3399 21.3296 16.1045 21.6196 16.1045C21.9097 16.1045 22.1451 16.3399 22.1451 16.6299V17.3934C22.1451 18.7575 22.7342 20.0493 23.7641 20.9475C23.7829 20.9601 23.8011 20.9734 23.8179 20.9882C24.0905 21.2207 24.2468 21.5604 24.2468 21.9192C24.2468 22.5952 23.6968 23.1452 23.0207 23.1452Z" fill="#FE5C73"/>
<path d="M22.1455 15.4388C20.214 15.4388 18.6426 13.8675 18.6426 11.936C18.6426 10.0045 20.214 8.43311 22.1455 8.43311C24.0769 8.43311 25.6482 10.0045 25.6482 11.936C25.6482 13.8675 24.0769 15.4388 22.1455 15.4388ZM22.1455 9.48396C20.7933 9.48396 19.6934 10.5838 19.6934 11.936C19.6934 13.288 20.7933 14.3879 22.1455 14.3879C23.4975 14.3879 24.5974 13.288 24.5974 11.936C24.5974 10.5838 23.4975 9.48396 22.1455 9.48396Z" fill="#FE5C73"/>
</g>
<defs>
<clipPath id="clip0_444_551">
<rect width="16.8137" height="16.8137" fill="white" transform="translate(9.5459 8.43311)"/>
</clipPath>
</defs>
</svg>
