<svg width="20" height="20" viewBox="0 0 20 20" fill="none" xmlns="http://www.w3.org/2000/svg">
<path d="M18.9 2H8.85C8.6298 1.4196 8.24043 0.918679 7.7323 0.562096C7.22417 0.205513 6.62069 0.0096957 6 0C5.38448 0.00584256 4.78565 0.200884 4.28476 0.558665C3.78387 0.916445 3.40515 1.41965 3.2 2H1.1C0.962075 1.99328 0.824179 2.01382 0.694206 2.06046C0.564234 2.10711 0.444738 2.17893 0.342561 2.27182C0.240384 2.36471 0.157533 2.47684 0.0987511 2.60179C0.0399694 2.72674 0.0064118 2.86206 0 3C0.0064118 3.13794 0.0399694 3.27326 0.0987511 3.39821C0.157533 3.52316 0.240384 3.63529 0.342561 3.72818C0.444738 3.82107 0.564234 3.89289 0.694206 3.93954C0.824179 3.98618 0.962075 4.00672 1.1 4H3.2C3.40515 4.58035 3.78387 5.08356 4.28476 5.44134C4.78565 5.79912 5.38448 5.99416 6 6C6.62069 5.9903 7.22417 5.79449 7.7323 5.4379C8.24043 5.08132 8.6298 4.5804 8.85 4H18.9C19.0379 4.00672 19.1758 3.98618 19.3058 3.93954C19.4358 3.89289 19.5553 3.82107 19.6574 3.72818C19.7596 3.63529 19.8425 3.52316 19.9012 3.39821C19.96 3.27326 19.9936 3.13794 20 3C19.9936 2.86206 19.96 2.72674 19.9012 2.60179C19.8425 2.47684 19.7596 2.36471 19.6574 2.27182C19.5553 2.17893 19.4358 2.10711 19.3058 2.06046C19.1758 2.01382 19.0379 1.99328 18.9 2ZM6 4C5.80222 4 5.60888 3.94135 5.44443 3.83147C5.27998 3.72159 5.15181 3.56541 5.07612 3.38268C5.00043 3.19996 4.98063 2.99889 5.01921 2.80491C5.0578 2.61093 5.15304 2.43275 5.29289 2.29289C5.43275 2.15304 5.61093 2.0578 5.80491 2.01921C5.99889 1.98063 6.19996 2.00043 6.38268 2.07612C6.56541 2.15181 6.72159 2.27998 6.83147 2.44443C6.94135 2.60888 7 2.80222 7 3C7 3.26522 6.89464 3.51957 6.70711 3.70711C6.51957 3.89464 6.26522 4 6 4Z" fill="#606060"/>
<path d="M18.8996 9H16.8496C16.6294 8.4196 16.24 7.91868 15.7319 7.5621C15.2238 7.20551 14.6203 7.0097 13.9996 7C13.3841 7.00584 12.7853 7.20088 12.2844 7.55866C11.7835 7.91644 11.4048 8.41965 11.1996 9H1.09961C0.834393 9 0.580039 9.10536 0.392503 9.29289C0.204966 9.48043 0.0996094 9.73478 0.0996094 10C0.0996094 10.2652 0.204966 10.5196 0.392503 10.7071C0.580039 10.8946 0.834393 11 1.09961 11H11.1996C11.4048 11.5804 11.7835 12.0836 12.2844 12.4413C12.7853 12.7991 13.3841 12.9942 13.9996 13C14.6203 12.9903 15.2238 12.7945 15.7319 12.4379C16.24 12.0813 16.6294 11.5804 16.8496 11H18.8996C19.1648 11 19.4192 10.8946 19.6067 10.7071C19.7943 10.5196 19.8996 10.2652 19.8996 10C19.8996 9.73478 19.7943 9.48043 19.6067 9.29289C19.4192 9.10536 19.1648 9 18.8996 9ZM13.9996 11C13.8018 11 13.6085 10.9414 13.444 10.8315C13.2796 10.7216 13.1514 10.5654 13.0757 10.3827C13 10.2 12.9802 9.99889 13.0188 9.80491C13.0574 9.61093 13.1527 9.43275 13.2925 9.29289C13.4324 9.15304 13.6105 9.0578 13.8045 9.01921C13.9985 8.98063 14.1996 9.00043 14.3823 9.07612C14.565 9.15181 14.7212 9.27998 14.8311 9.44443C14.941 9.60888 14.9996 9.80222 14.9996 10C14.9996 10.2652 14.8943 10.5196 14.7067 10.7071C14.5192 10.8946 14.2648 11 13.9996 11Z" fill="#606060"/>
<path d="M18.8996 16H10.3496C10.1294 15.4196 9.74004 14.9187 9.23191 14.5621C8.72378 14.2055 8.1203 14.0097 7.49961 14C6.88409 14.0058 6.28526 14.2009 5.78437 14.5587C5.28348 14.9164 4.90476 15.4196 4.69961 16H1.09961C0.834393 16 0.580039 16.1054 0.392503 16.2929C0.204966 16.4804 0.0996094 16.7348 0.0996094 17C0.0996094 17.2652 0.204966 17.5196 0.392503 17.7071C0.580039 17.8946 0.834393 18 1.09961 18H4.69961C4.90476 18.5804 5.28348 19.0836 5.78437 19.4413C6.28526 19.7991 6.88409 19.9942 7.49961 20C8.1203 19.9903 8.72378 19.7945 9.23191 19.4379C9.74004 19.0813 10.1294 18.5804 10.3496 18H18.8996C19.1648 18 19.4192 17.8946 19.6067 17.7071C19.7943 17.5196 19.8996 17.2652 19.8996 17C19.8996 16.7348 19.7943 16.4804 19.6067 16.2929C19.4192 16.1054 19.1648 16 18.8996 16ZM7.49961 18C7.30183 18 7.10849 17.9414 6.94404 17.8315C6.77959 17.7216 6.65142 17.5654 6.57573 17.3827C6.50004 17.2 6.48024 16.9989 6.51882 16.8049C6.55741 16.6109 6.65265 16.4327 6.7925 16.2929C6.93236 16.153 7.11054 16.0578 7.30452 16.0192C7.4985 15.9806 7.69957 16.0004 7.88229 16.0761C8.06502 16.1518 8.2212 16.28 8.33108 16.4444C8.44096 16.6089 8.49961 16.8022 8.49961 17C8.49961 17.2652 8.39425 17.5196 8.20672 17.7071C8.01918 17.8946 7.76483 18 7.49961 18Z" fill="#606060"/>
</svg>
