<svg width="34" height="34" viewBox="0 0 34 34" fill="none" xmlns="http://www.w3.org/2000/svg">
<circle cx="16.8137" cy="17.1764" r="16.8137" fill="#F5F7FA"/>
<g clip-path="url(#clip0_444_546)">
<path d="M17.0047 25.2468H15.9495C15.0961 25.2468 14.4017 24.5524 14.4017 23.699V23.342C14.0388 23.226 13.6863 23.0797 13.3476 22.9044L13.0946 23.1574C12.4819 23.7709 11.5004 23.7529 10.9054 23.1572L10.1596 22.4114C9.56361 21.8161 9.54647 20.8349 10.1598 20.2222L10.4126 19.9694C10.2373 19.6307 10.091 19.2783 9.97508 18.9154H9.61812C8.7647 18.9154 8.07031 18.221 8.07031 17.3676V16.3123C8.07031 15.4588 8.7647 14.7645 9.61815 14.7645H9.97512C10.0911 14.4016 10.2374 14.0491 10.4126 13.7105L10.1596 13.4575C9.54666 12.8452 9.56358 11.8639 10.1598 11.2683L10.9057 10.5224C11.502 9.92528 12.4833 9.91038 13.0949 10.5226L13.3477 10.7754C13.6863 10.6002 14.0389 10.4538 14.4017 10.3379V9.98091C14.4017 9.12746 15.0961 8.43311 15.9495 8.43311H17.0048C17.8582 8.43311 18.5526 9.12746 18.5526 9.98091V10.3379C18.9154 10.4538 19.2679 10.6002 19.6066 10.7754L19.8596 10.5224C20.4724 9.90893 21.4539 9.92693 22.0488 10.5227L22.7946 11.2684C23.3906 11.8638 23.4078 12.845 22.7944 13.4577L22.5416 13.7105C22.7169 14.0491 22.8632 14.4016 22.9792 14.7645H23.3361C24.1896 14.7645 24.884 15.4588 24.884 16.3123V17.3676C24.884 18.221 24.1896 18.9154 23.3361 18.9154H22.9792C22.8632 19.2782 22.7169 19.6307 22.5416 19.9694L22.7946 20.2224C23.4076 20.8347 23.3907 21.816 22.7944 22.4116L22.0486 23.1575C21.4522 23.7546 20.4709 23.7695 19.8594 23.1573L19.6066 22.9045C19.2679 23.0797 18.9154 23.2261 18.5526 23.342V23.699C18.5526 24.5524 17.8582 25.2468 17.0047 25.2468ZM13.5123 21.8699C13.9828 22.1482 14.4892 22.3584 15.0174 22.4947C15.2349 22.5508 15.3869 22.747 15.3869 22.9716V23.699C15.3869 24.0092 15.6393 24.2616 15.9495 24.2616H17.0048C17.315 24.2616 17.5674 24.0092 17.5674 23.699V22.9716C17.5674 22.747 17.7194 22.5508 17.9369 22.4947C18.4651 22.3584 18.9715 22.1482 19.442 21.8699C19.6356 21.7554 19.882 21.7866 20.0411 21.9456L20.5563 22.4608C20.7784 22.6832 21.1351 22.678 21.3518 22.461L22.0981 21.7147C22.3142 21.4989 22.3215 21.1421 22.0983 20.9192L21.5829 20.4038C21.4239 20.2448 21.3927 19.9983 21.5072 19.8048C21.7854 19.3343 21.9956 18.8279 22.1319 18.2997C22.1881 18.0822 22.3842 17.9302 22.6089 17.9302H23.3362C23.6464 17.9302 23.8988 17.6778 23.8988 17.3676V16.3123C23.8988 16.0021 23.6464 15.7497 23.3362 15.7497H22.6089C22.3842 15.7497 22.1881 15.5977 22.1319 15.3802C21.9956 14.852 21.7854 14.3456 21.5072 13.8752C21.3927 13.6816 21.4239 13.4351 21.5829 13.2761L22.0981 12.7609C22.3208 12.5385 22.315 12.1818 22.0983 11.9654L21.352 11.2191C21.1357 11.0025 20.7789 10.9962 20.5565 11.2189L20.0411 11.7343C19.8821 11.8934 19.6355 11.9245 19.442 11.81C18.9715 11.5318 18.4652 11.3216 17.937 11.1853C17.7194 11.1291 17.5675 10.933 17.5675 10.7083V9.98091C17.5675 9.67068 17.315 9.41828 17.0048 9.41828H15.9496C15.6393 9.41828 15.3869 9.67068 15.3869 9.98091V10.7082C15.3869 10.9329 15.2349 11.1291 15.0174 11.1852C14.4892 11.3215 13.9828 11.5317 13.5124 11.81C13.3187 11.9244 13.0723 11.8933 12.9133 11.7343L12.3981 11.219C12.176 10.9967 11.8192 11.0018 11.6026 11.2188L10.8563 11.9651C10.6401 12.181 10.6329 12.5377 10.8561 12.7607L11.3715 13.2761C11.5305 13.4351 11.5616 13.6816 11.4472 13.8751C11.1689 14.3456 10.9587 14.8519 10.8224 15.3802C10.7663 15.5977 10.5701 15.7496 10.3455 15.7496H9.61815C9.30792 15.7497 9.05549 16.0021 9.05549 16.3123V17.3676C9.05549 17.6778 9.30792 17.9302 9.61815 17.9302H10.3454C10.5701 17.9302 10.7662 18.0822 10.8224 18.2997C10.9587 18.8279 11.1689 19.3343 11.4471 19.8047C11.5616 19.9983 11.5304 20.2448 11.3714 20.4038L10.8562 20.919C10.6335 21.1414 10.6393 21.4981 10.856 21.7145L11.6023 22.4608C11.8186 22.6774 12.1754 22.6837 12.3978 22.461L12.9132 21.9456C13.0304 21.8284 13.2741 21.729 13.5123 21.8699Z" fill="#6772FF"/>
<path d="M16.4776 20.4982C14.4604 20.4982 12.8193 18.8571 12.8193 16.8399C12.8193 14.8227 14.4604 13.1816 16.4776 13.1816C18.4948 13.1816 20.1359 14.8227 20.1359 16.8399C20.1359 18.8571 18.4948 20.4982 16.4776 20.4982ZM16.4776 14.1668C15.0036 14.1668 13.8045 15.366 13.8045 16.8399C13.8045 18.3139 15.0037 19.513 16.4776 19.513C17.9516 19.513 19.1507 18.3139 19.1507 16.8399C19.1507 15.366 17.9516 14.1668 16.4776 14.1668Z" fill="#6772FF"/>
</g>
<defs>
<clipPath id="clip0_444_546">
<rect width="16.8137" height="16.8137" fill="white" transform="translate(8.07031 8.43311)"/>
</clipPath>
</defs>
</svg>
