<svg width="17" height="20" viewBox="0 0 17 20" fill="none" xmlns="http://www.w3.org/2000/svg">
<path d="M14.2714 12.6857L13.6153 12.0297C13.3285 11.7429 12.8617 11.7426 12.5743 12.0297L11.8222 12.7821L9.913 14.6913C9.87461 14.7297 9.84729 14.778 9.83411 14.8305L9.40931 16.527C9.38382 16.6293 9.41381 16.7373 9.4882 16.812C9.54491 16.869 9.62169 16.8999 9.7003 16.8999C9.72459 16.8999 9.74889 16.8969 9.7729 16.8909L11.4703 16.4669C11.5231 16.4538 11.5714 16.4264 11.6098 16.3881L14.2714 13.7268C14.4103 13.5879 14.4871 13.4028 14.4871 13.2063C14.4871 13.0097 14.4106 12.8249 14.2714 12.6857ZM11.2444 15.905L10.1128 16.1876L10.3957 15.0566L12.034 13.4183L12.8827 14.267L11.2444 15.905ZM13.8472 13.3022L13.3069 13.8426L12.4582 12.9939L12.9985 12.4535C13.0522 12.4005 13.1383 12.4007 13.1911 12.4535L13.8472 13.1096C13.882 13.1444 13.8871 13.1849 13.8871 13.2059C13.8871 13.2273 13.8817 13.2678 13.8472 13.3022Z" fill="#606060" stroke="#606060" stroke-width="0.7"/>
<path d="M11.7998 10C9.31851 10 7.2998 12.0187 7.2998 14.5C7.2998 16.9813 9.31851 19 11.7998 19C14.2811 19 16.2998 16.9813 16.2998 14.5C16.2998 12.0187 14.2811 10 11.7998 10ZM11.7998 18.4C9.6494 18.4 7.89982 16.6504 7.89982 14.5C7.89982 12.3496 9.6494 10.6 11.7998 10.6C13.9502 10.6 15.6998 12.3496 15.6998 14.5C15.6998 16.6504 13.9502 18.4 11.7998 18.4Z" fill="#606060" stroke="#606060" stroke-width="0.7"/>
<path d="M7.59995 17.4996H1.59998V15.3996C1.59998 15.234 1.46557 15.0996 1.29999 15.0996C1.1344 15.0996 1 15.234 1 15.3996V17.7996C1 17.9652 1.1344 18.0996 1.29999 18.0996H7.59999C7.76557 18.0996 7.89998 17.9652 7.89998 17.7996C7.89998 17.634 7.76557 17.4996 7.59995 17.4996Z" fill="#606060" stroke="#606060" stroke-width="0.7"/>
<path d="M1.29999 13.9004C1.1344 13.9004 1 14.0348 1 14.2004C1 14.366 1.1344 14.5004 1.29999 14.5004H1.30298C1.46856 14.5004 1.60149 14.366 1.60149 14.2004C1.60149 14.0348 1.46561 13.9004 1.29999 13.9004Z" fill="#606060" stroke="#606060" stroke-width="0.7"/>
<path d="M13.5121 5.88791L8.71209 1.08789C8.65598 1.0315 8.57948 1 8.49999 1H1.29999C1.1344 1 1 1.1344 1 1.29999V13C1 13.1656 1.1344 13.3 1.29999 13.3C1.46557 13.3 1.59998 13.1656 1.59998 13V1.60001H8.2V6.10001C8.2 6.2656 8.3344 6.4 8.49999 6.4H13V9.1C13 9.26559 13.1344 9.39999 13.3 9.39999C13.4656 9.39999 13.6 9.26559 13.6 9.1V6.10001C13.6 6.02049 13.5685 5.94399 13.5121 5.88791ZM8.80001 5.79999V2.02421L12.5758 5.80002L8.80001 5.79999Z" fill="#606060" stroke="#606060" stroke-width="0.7"/>
</svg>
