<svg width="17" height="19" viewBox="0 0 17 19" fill="none" xmlns="http://www.w3.org/2000/svg">
<path d="M7.25 11H12.6667" stroke="#606060" stroke-width="1.5" stroke-linecap="round"/>
<path d="M4.33301 11H4.74967" stroke="#606060" stroke-width="1.5" stroke-linecap="round"/>
<path d="M4.33301 8.08301H4.74967" stroke="#606060" stroke-width="1.5" stroke-linecap="round"/>
<path d="M4.33301 13.917H4.74967" stroke="#606060" stroke-width="1.5" stroke-linecap="round"/>
<path d="M7.25 8.08301H12.6667" stroke="#606060" stroke-width="1.5" stroke-linecap="round"/>
<path d="M7.25 13.917H12.6667" stroke="#606060" stroke-width="1.5" stroke-linecap="round"/>
<path d="M5.16699 2.25C5.16699 1.55964 5.72663 1 6.41699 1H10.5837C11.274 1 11.8337 1.55964 11.8337 2.25V3.08333C11.8337 3.77369 11.274 4.33333 10.5837 4.33333H6.41699C5.72663 4.33333 5.16699 3.77369 5.16699 3.08333V2.25Z" stroke="#606060" stroke-width="1.5"/>
<path d="M16 12.6665C16 15.0235 16 16.2021 15.2677 16.9343C14.5355 17.6665 13.357 17.6665 11 17.6665H6C3.64297 17.6665 2.46447 17.6665 1.73223 16.9343C1 16.2021 1 15.0235 1 12.6665V10.1665M11.8333 2.66797C13.6458 2.67806 14.6274 2.75844 15.2677 3.39875C16 4.13099 16 5.3095 16 7.66651V9.33318M5.16667 2.66797C3.35414 2.67806 2.37255 2.75844 1.73223 3.39875C1.09193 4.03905 1.01154 5.0206 1.00145 6.83301" stroke="#606060" stroke-width="1.5" stroke-linecap="round"/>
</svg>
