<svg width="17" height="17" viewBox="0 0 17 17" fill="none" xmlns="http://www.w3.org/2000/svg">
<path d="M16 8.65293V9.79375C16 12.7194 16 14.1822 15.1213 15.0911C14.2427 16 12.8284 16 10 16H7C4.17157 16 2.75736 16 1.87868 15.0911C1 14.1822 1 12.7194 1 9.79375V8.65293C1 6.93662 1 6.07846 1.3894 5.36706C1.7788 4.65566 2.49021 4.21413 3.91302 3.3311L5.41302 2.40015C6.91704 1.46672 7.66907 1 8.5 1C9.33093 1 10.0829 1.46672 11.587 2.40015L13.087 3.33109C14.5098 4.21413 15.2212 4.65566 15.6106 5.36706" stroke="#1C274C" stroke-width="1.5" stroke-linecap="round"/>
<path d="M10.75 13H6.25" stroke="#1C274C" stroke-width="1.5" stroke-linecap="round"/>
</svg>
