<svg width="17" height="17" viewBox="0 0 17 17" fill="none" xmlns="http://www.w3.org/2000/svg">
<path d="M6.625 9.81243C6.625 10.5399 7.1875 11.1249 7.8775 11.1249H9.2875C9.8875 11.1249 10.375 10.6149 10.375 9.97743C10.375 9.29494 10.075 9.04744 9.6325 8.88994L7.375 8.10244C6.9325 7.94494 6.63251 7.70494 6.63251 7.01494C6.63251 6.38493 7.12 5.86743 7.72 5.86743H9.13C9.82 5.86743 10.3825 6.45243 10.3825 7.17994" stroke="#606060" stroke-width="1.5" stroke-linecap="round" stroke-linejoin="round"/>
<path d="M8.5 5.12488V11.8749" stroke="#606060" stroke-width="1.5" stroke-linecap="round" stroke-linejoin="round"/>
<path d="M16 8.49999C16 12.64 12.64 16 8.49999 16C4.36 16 1 12.64 1 8.49999C1 4.36 4.36 1 8.49999 1" stroke="#606060" stroke-width="1.5" stroke-linecap="round" stroke-linejoin="round"/>
<path d="M15.9998 4V1H12.9998" stroke="#606060" stroke-width="1.5" stroke-linecap="round" stroke-linejoin="round"/>
<path d="M12.25 4.75L16 1" stroke="#606060" stroke-width="1.5" stroke-linecap="round" stroke-linejoin="round"/>
</svg>
