<svg width="18" height="18" viewBox="0 0 18 18" fill="none" xmlns="http://www.w3.org/2000/svg">
<path d="M10.6 16.6H7.4C4.38301 16.6 2.87452 16.6 1.93726 15.6627C1 14.7255 1 13.2169 1 10.2V8.59995C1 5.58296 1 4.07447 1.93726 3.13721C2.87452 2.19995 4.38301 2.19995 7.4 2.19995H10.6C13.617 2.19995 15.1255 2.19995 16.0627 3.13721C17 4.07447 17 5.58296 17 8.59995V10.2C17 13.2169 17 14.7255 16.0627 15.6627C15.5402 16.1852 14.8401 16.4164 13.8 16.5188" stroke="#606060" stroke-width="1.5" stroke-linecap="round"/>
<path d="M5 2.2V1" stroke="#606060" stroke-width="1.5" stroke-linecap="round"/>
<path d="M13 2.2V1" stroke="#606060" stroke-width="1.5" stroke-linecap="round"/>
<path d="M16.6 6.19995H12.7H8M1 6.19995H4.1" stroke="#606060" stroke-width="1.5" stroke-linecap="round"/>
<path d="M13.05 12.6C13.05 12.6277 13.0276 12.65 13 12.65C12.9723 12.65 12.95 12.6277 12.95 12.6C12.95 12.5724 12.9723 12.55 13 12.55C13.0276 12.55 13.05 12.5724 13.05 12.6Z" fill="#606060" stroke="#606060" stroke-width="1.5"/>
<path d="M13.05 9.39998C13.05 9.4276 13.0276 9.44998 13 9.44998C12.9723 9.44998 12.95 9.4276 12.95 9.39998C12.95 9.37235 12.9723 9.34998 13 9.34998C13.0276 9.34998 13.05 9.37235 13.05 9.39998Z" fill="#606060" stroke="#606060" stroke-width="1.5"/>
<path d="M9.04995 12.6C9.04995 12.6277 9.02758 12.65 8.99995 12.65C8.97232 12.65 8.94995 12.6277 8.94995 12.6C8.94995 12.5724 8.97232 12.55 8.99995 12.55C9.02758 12.55 9.04995 12.5724 9.04995 12.6Z" fill="#606060" stroke="#606060" stroke-width="1.5"/>
<path d="M9.04995 9.39998C9.04995 9.4276 9.02758 9.44998 8.99995 9.44998C8.97232 9.44998 8.94995 9.4276 8.94995 9.39998C8.94995 9.37235 8.97232 9.34998 8.99995 9.34998C9.02758 9.34998 9.04995 9.37235 9.04995 9.39998Z" fill="#606060" stroke="#606060" stroke-width="1.5"/>
<path d="M5.04995 12.6C5.04995 12.6277 5.02757 12.65 4.99995 12.65C4.97233 12.65 4.94995 12.6277 4.94995 12.6C4.94995 12.5724 4.97233 12.55 4.99995 12.55C5.02757 12.55 5.04995 12.5724 5.04995 12.6Z" fill="#606060" stroke="#606060" stroke-width="1.5"/>
<path d="M5.04995 9.39998C5.04995 9.42759 5.02757 9.44998 4.99995 9.44998C4.97233 9.44998 4.94995 9.42759 4.94995 9.39998C4.94995 9.37236 4.97233 9.34998 4.99995 9.34998C5.02757 9.34998 5.04995 9.37236 5.04995 9.39998Z" fill="#606060" stroke="#606060" stroke-width="1.5"/>
</svg>
