<svg width="13" height="20" viewBox="0 0 13 20" fill="none" xmlns="http://www.w3.org/2000/svg">
<path d="M12.2973 19.5H0.702703C0.516334 19.5 0.337599 19.426 0.205817 19.2942C0.0740347 19.1624 0 18.9837 0 18.7973V8.78382C0 8.59745 0.0740347 8.41872 0.205817 8.28694C0.337599 8.15515 0.516334 8.08112 0.702703 8.08112C0.889071 8.08112 1.06781 8.15515 1.19959 8.28694C1.33137 8.41872 1.40541 8.59745 1.40541 8.78382V18.0946H11.5946V6.51761L8.29189 2.30139H1.40541V3.8122C1.40541 3.99857 1.33137 4.17731 1.19959 4.30909C1.06781 4.44087 0.889071 4.5149 0.702703 4.5149C0.516334 4.5149 0.337599 4.44087 0.205817 4.30909C0.0740347 4.17731 0 3.99857 0 3.8122V1.58112C0 1.39475 0.0740347 1.21602 0.205817 1.08424C0.337599 0.952453 0.516334 0.878419 0.702703 0.878419H8.6327C8.73973 0.878261 8.84537 0.902552 8.94158 0.949438C9.03779 0.996325 9.12202 1.06457 9.18784 1.14896L12.8524 5.84301C12.9484 5.96662 13.0003 6.11871 13 6.27517V18.7973C13 18.9837 12.926 19.1624 12.7942 19.2942C12.6624 19.426 12.4837 19.5 12.2973 19.5Z" fill="#606060"/>
<path d="M4.20221 17.016C4.01585 17.016 3.83711 16.942 3.70533 16.8102C3.57355 16.6784 3.49951 16.4997 3.49951 16.3133V14.0049C3.49951 13.8186 3.57355 13.6398 3.70533 13.5081C3.83711 13.3763 4.01585 13.3022 4.20221 13.3022C4.38858 13.3022 4.56732 13.3763 4.6991 13.5081C4.83088 13.6398 4.90492 13.8186 4.90492 14.0049V16.3133C4.90492 16.4997 4.83088 16.6784 4.6991 16.8102C4.56732 16.942 4.38858 17.016 4.20221 17.016Z" fill="#606060"/>
<path d="M6.50007 17.0159C6.3137 17.0159 6.13496 16.9419 6.00318 16.8101C5.8714 16.6784 5.79736 16.4996 5.79736 16.3132V12.2481C5.79736 12.0617 5.8714 11.883 6.00318 11.7512C6.13496 11.6194 6.3137 11.5454 6.50007 11.5454C6.68643 11.5454 6.86517 11.6194 6.99695 11.7512C7.12873 11.883 7.20277 12.0617 7.20277 12.2481V16.3132C7.20277 16.4996 7.12873 16.6784 6.99695 16.8101C6.86517 16.9419 6.68643 17.0159 6.50007 17.0159Z" fill="#606060"/>
<path d="M8.79792 17.016C8.61155 17.016 8.43281 16.942 8.30103 16.8102C8.16925 16.6784 8.09521 16.4997 8.09521 16.3133V10.4914C8.09521 10.305 8.16925 10.1263 8.30103 9.99451C8.43281 9.86273 8.61155 9.7887 8.79792 9.7887C8.98429 9.7887 9.16302 9.86273 9.2948 9.99451C9.42658 10.1263 9.50062 10.305 9.50062 10.4914V16.3133C9.50062 16.4997 9.42658 16.6784 9.2948 16.8102C9.16302 16.942 8.98429 17.016 8.79792 17.016Z" fill="#606060"/>
</svg>
