<svg width="17" height="19" viewBox="0 0 17 19" fill="none" xmlns="http://www.w3.org/2000/svg">
<path d="M11.0801 6.82767C11.0801 6.87326 11.0432 6.91022 10.9976 6.91022C10.952 6.91022 10.915 6.87326 10.915 6.82767C10.915 6.78208 10.952 6.74512 10.9976 6.74512C11.0432 6.74512 11.0801 6.78208 11.0801 6.82767Z" fill="#606060" stroke="#606060" stroke-width="1.5"/>
<path d="M6.08503 6.82767C6.08503 6.87326 6.04807 6.91022 6.00247 6.91022C5.95688 6.91022 5.91992 6.87326 5.91992 6.82767C5.91992 6.78208 5.95688 6.74512 6.00247 6.74512C6.04807 6.74512 6.08503 6.78208 6.08503 6.82767Z" fill="#606060" stroke="#606060" stroke-width="1.5"/>
<path d="M6.00195 4.33021V3.49766C6.00195 2.11824 7.12015 1 8.49961 1C9.87907 1 10.9973 2.11824 10.9973 3.49766V4.33021" stroke="#606060" stroke-width="1.5" stroke-linecap="round"/>
<path d="M15.3466 9.76307C14.8593 7.16452 14.6157 5.86525 13.6908 5.09766C12.7659 4.33008 11.4441 4.33008 8.80022 4.33008H8.19979C5.55597 4.33008 4.23406 4.33008 3.30917 5.09766C2.38429 5.86525 2.14068 7.16452 1.65345 9.76307C0.968319 13.4171 0.625757 15.2441 1.62451 16.4475C2.62326 17.6509 4.4821 17.6509 8.19979 17.6509H8.80022C12.5179 17.6509 14.3767 17.6509 15.3755 16.4475C15.9549 15.7493 16.0829 14.8412 15.9544 13.4882" stroke="#606060" stroke-width="1.5" stroke-linecap="round"/>
</svg>
